<svg xmlns="http://www.w3.org/2000/svg" width="74.033" height="45.509" viewBox="0 0 74.033 45.509">
  <g id="Group_349" data-name="Group 349" transform="translate(0 0)">
    <g id="Group_349-2" data-name="Group 349">
      <g id="Group_45" data-name="Group 45" transform="translate(34.293)">
        <path id="Path_21" data-name="Path 21" d="M1218.285,719.6c0,12.567,6.982,22.755,19.549,22.755s20.191-10.188,20.191-22.755-7.624-22.755-20.191-22.755S1218.285,707.031,1218.285,719.6Z" transform="translate(-1218.285 -696.843)" fill="#fff"/>
      </g>
      <g id="Group_46" data-name="Group 46">
        <path id="Path_22" data-name="Path 22" d="M1250.293,719.6c0,12.567,6.983,22.755,19.55,22.755s20.191-10.188,20.191-22.755-7.624-22.755-20.191-22.755S1250.293,707.031,1250.293,719.6Z" transform="translate(-1250.293 -696.843)" fill="#fff"/>
      </g>
      <g id="Group_48" data-name="Group 48" transform="translate(45.126 8.938)">
        <g id="Group_47" data-name="Group 47" transform="translate(0)">
          <path id="Path_23" data-name="Path 23" d="M1222.772,718.984c0,7.621,4.234,13.8,11.856,13.8s12.244-6.179,12.244-13.8-4.624-13.8-12.244-13.8S1222.772,711.363,1222.772,718.984Z" transform="translate(-1222.772 -705.186)" fill="#333"/>
        </g>
      </g>
      <g id="Group_50" data-name="Group 50" transform="translate(10.256 8.938)">
        <g id="Group_49" data-name="Group 49">
          <path id="Path_24" data-name="Path 24" d="M1255.32,718.984c0,7.621,4.234,13.8,11.855,13.8s12.244-6.179,12.244-13.8-4.622-13.8-12.244-13.8S1255.32,711.363,1255.32,718.984Z" transform="translate(-1255.32 -705.186)" fill="#333"/>
        </g>
      </g>
    </g>
    <path id="Path_26" data-name="Path 26" d="M1230.128,709.163l-10.2,6.367,13.34,2.26,2.066-5.707Z" transform="translate(-1163.057 -695.927)" fill="#fff"/>
    <path id="Path_27" data-name="Path 27" d="M1258.4,709.672l-8.69,5.858,11.846,2.413,3.56-5.859Z" transform="translate(-1224.743 -695.927)" fill="#fff"/>
  </g>
</svg>
